# xmcd CD database file
#
# Track frame offsets:
#	150
#	15362
#	29042
#	43305
#	57120
#	69197
#	81965
#	95740
#	110290
#	124915
#	138217
#	151412
#	165092
#	179182
#	192515
#	202767
#	216102
#	230312
#	242280
#	255942
#	268537
#	281582
#	301707
#
# Disc length: 4284 seconds
#
# Revision: 0
# Processed by: cddbd v1.5.2PL0 Copyright (c) Steve Scherf et al.
# Submitted via: CDex 1.70beta2
#
DISCID=3110ba17
DTITLE=Louis Armstrong - Ambassador volume 2 "1936"
DYEAR=1990
DGENRE=Jazz
TTITLE0=The Music Goes Round and Around
TTITLE1=Rhythm Saved the World
TTITLE2=Rhythm Saved the World
TTITLE3=I'm Putting all my Eggs in One Basket
TTITLE4=Yes-Yes! My-My!
TTITLE5=Somebody Stole My Break
TTITLE6=I Come From a Musical Family
TTITLE7=If We Never Meet Again
TTITLE8=Lyin' To Myself
TTITLE9=Ev'ntide
TTITLE10=Swing that Music
TTITLE11=Thankful
TTITLE12=Red Nose
TTITLE13=Mahogany Hall Stomp
TTITLE14=Dinah
TTITLE15=Swing That Music
TTITLE16=The Skeleton in the Cupboard
TTITLE17=When Ruben Swings the Cuban
TTITLE18=Hurdy Gurdy Man
TTITLE19=Dippermouth Blues
TTITLE20=Swing That Music
TTITLE21=selection from PENNIES FROM HEAVEN: Let's Call A Heart A Heart - So Do I - The Skeleton in the Cupboard
TTITLE22=Pennies From Heaven
EXTD=YEAR: 1990
EXTT0=
EXTT1=
EXTT2=
EXTT3=
EXTT4=
EXTT5=
EXTT6=
EXTT7=
EXTT8=
EXTT9=
EXTT10=
EXTT11=
EXTT12=
EXTT13=
EXTT14=
EXTT15=
EXTT16=
EXTT17=
EXTT18=
EXTT19=
EXTT20=
EXTT21=
EXTT22=
PLAYORDER=
